<?xml version="1.0" encoding="UTF-8"?><svg id="Layer_1" xmlns="http://www.w3.org/2000/svg" viewBox="0 0 738.13 221.37"><defs><style>.cls-1{fill:#e8b909;}.cls-2{fill:#00679f;}.cls-3{fill:#c85c1a;}.cls-4{fill:#231f20;}.cls-5{fill:#4d8336;}</style></defs><g><g><path class="cls-2" d="M259.33,19.63c-1.32-.12-2.69-.13-4.67-.18-5.64-.16-5.86-1.39-5.86-1.66,0-.24-.15-1.73,4.43-1.87,5.25-.15,5.28-1.81,3.65-2.86-.48-.3-.95-.5-1.25-.73-.46-.33-.75-.89-.43-1.49,.03-.06,.79,.3,2.55,.71,3.62,.84,5.54,.79,11.29,1.07,7.83,.38,12.76,.64,19.78,1.36,7.02,.71,17.22,2.41,25.27,4.68,32.56,8.45,62.32,30.69,76.45,62.34,.45,.63,.82,1.44,1,2.24,5.83,13.86,8.86,28.92,7.65,44.52-.07,.09-.17,.13-.21,.23,.04,2.95-.54,5.3-.84,8.37-1.55,9.97-4.72,18.83-8.95,27.41-7.45,14.3-20.1,28.03-34.75,35.16-1.59,.21-2.83,1.59-4.36,1.76,.3-.08-.22-.32,.13-.43,3.33-1.69,6.23-3.52,9.28-5.47-.07-.3-.29-.03-.49-.05-16.66,10.66-37.04,15.85-57.46,10.71-.08-.2,.22-.18,.13-.34,12.31,2.34,24.99,1.31,36.21-2.08,4.43-1.45,8.86-2.86,12.89-5.42-1.64,.21-3.32,1.69-5.09,1.7,3.77-2.34,7.51-3.7,11.12-6.4-.97-.18-1.85,.88-2.88,.95-6.03,3.57-12.49,6.38-19.36,7.73q-.09-.15,0,0c.24,.02,.43-.01,.6-.2-.33-.71-.68,.44-.55-.53,7.27-2.49,14.5-5.29,21.05-9.71,1.23-1.81,4.12-2.58,5.72-4.07,4.16-3.53,7.92-7.56,11.26-11.75,3.33-4.19,4.41-6.08,6.3-9.41-.29-.29-.62,.26-.98,.86-7.4,11.91-23.87,28.97-47.37,33.29-2.31,.15-4.43,.82-6.79,.82-1.5,.47-3.54,.1-4.91,.18-.06-.44,.81-.27,1.21-.49,22.88-1.61,43.44-13.61,56.64-33.79,3.55-5.94,6.12-10.42,8.22-16.71,.74-1.91,1.92-6.33,2.27-7.69,.58-2.18,1.12-5.74,1.17-6.15,1.57-9.48,1.85-19.09,.35-27.83-.72-4.38-1.79-8.63-3.22-12.73-2.09-6.84-5.02-13.37-8.74-19.56-1.48-2.33-2.91-4.8-4.55-6.95-.45-.42-1.48,.03-1.14,.48,4.06,5.5,7.3,11.7,9.84,17.71,.75,1.69,1.61,3.59,2.2,5.41,4.27,11.97,6.26,25.32,4.64,38.04-.03,.19-.53,.22-.53-.06,.31-5.48,.58-10.28-.06-15.63-.01-.09-.03-.16-.07-.35-1.74-19.69-12.25-40.16-23.02-52.16-2.22-2.46-5.52-5.75-6.94-7.1-5.31-5.07-4.45-3.84-5.86-4.93-2.51-1.94-1.64-.1-.73,.68,.33,.38,4.86,4.05,10.12,9.61,6.32,6.68,9.15,11.23,9.22,11.78-.03,.19-.2,.13-.25,.07-.37-.27-1.47-2.3-3.79-4.42-.61-.3-1.01,.43-1.45,.13-9.33-10.31-13.68-15.59-30.55-24.02-19.38-9.7-44.28-11.17-59.01-8.16-17.46,3.57-29.62,8.47-42.07,16.77-16.48,11-23.1,20.7-28.7,25.01-3.26,2.52-6.96,2.81-7.76,2.05-1.72-1.63,6.95-5.23,6.15-6.52-.18-.3-1,.33-2.02,.81-1.01,.48-2.5,.19-.75-1.34,3.4-2.98,12.85-10.5,15.95-12.68,1.2-.94,1.24-1.6,.24-.96-2.41,1.48-2.87,1.63-4.06,2.44-1.19,.82-3.31,2.02-3.7,1.58-.37-.42-.02-1.16,.48-1.65,.5-.49,.79-.8,1.6-1.7-.53-.54-2.29,.26-3.38,.83-1.4,.73-3.2,1.67-3.41,1.37-.3-.43,1.85-2.14,4.16-3.72,2.29-1.57,4.7-3.09,6.69-4.51,.32-.23,.97-.74,1.27-.91,1.97-1.15,1.52-1.91-.52-.92-5.14,2.48-5.01,.97-.47-2.1,6.1-4.12,14.3-8.11,20.22-10.65-.14,0,2.82-1.4-.18-.63-2.94,.75-7.44,2.58-8.31,2.87-.87,.28-2.85,1.28-3.14,.69-.29-.6,2.4-1.76,3.65-2.65-1.93,.23-5.06,1.52-5.82,1.82-.76,.29-1.95,.76-2.21,.42-.37-.49-.11-.84,1.19-1.63,1.52-.92,4.76-2.62,8.31-4.27,1.5-.88,1.05-1.17-1.03-.52-1.82,.58-2.16,.17-4.13,.84-.67,.19-1.79,.59-2.13,.13-.2-.56,1.08-1.2,1.69-1.5,4.64-2,9.15-3.18,12.32-4.23,.36-.16,2.57-.52-.15-.91-1.85-.27-3.87,.58-5.21-.12-.74-.4-.51-.84,1.34-1.43,4.51-1.43,10.18-2.57,15.85-3.5,0,0,2.85-.66,.36-1.38-1.85-.53-5.71-.35-5.81-.9-.05-.27,.1-.76,2.09-1.01,4.52-.56,12.37-.95,17.92-.96,0,0,.97-.68-2.03-.96Z"/><path class="cls-5" d="M343.68,5.69c1.13,1.03,1.35,.29,2.77,1.25,6.91,5.37,10.53,7.92,20.5,17.81,9.3,9.2,18.75,21.48,25.12,34.66,1.04,1.75,6.15,13.25,8.34,20.67,.17,.43,.64,1.62,1.09,2.05,.32,1,.49,2.36,.91,4.09,.08,.26,.82,1.06,.71-.54-.73-4.59-.53-5.71-3.51-13.77-2.09-5.69-4.49-10.38-6.17-14.04-.23-1.25-1.47-2.43-1.71-3.67-.71-1.58-1.53-2.83-2.24-4.4-.36-.68-.12-.85,.28-.47,3.36,3.95-1.44-5.27-4.02-10.5-.15-.34,.57-.36,.7-.32,.46,.13,8.92,14.46,10.74,17.9,.42,1.01,.88,2.03,1.28,3.04,1.05,2.2,1.89,5.06,3.14,6.49,1.42,2.17,1.96,4.56,1.91,2.59-2.11-6.5-4.85-12.6-7.53-18.85-1-1.61-1.73-3.53-2.41-5.35-.32-.58,.09-1.07,.53-.54,.55,.43,1.53,2.3,1.75,2.19,.06,.03,.32-.29,.28-.43-.49-1.63-1.98-6.24-5.71-13.52-3.65-7.12-5.83-10.49-7.8-13.66,.13-.97,1.37-1.26,2.97,.07,1.54,1.27,5.39,6,6.74,7.61,1.33,1.54,.3,1.8,.6,2.85,1.54,2.73,2.91,5.83,4.33,8.74,3.87,7.87,7.27,16.15,9.82,23.85,2.21,6.65,5.37,15.67,7.21,31.98,1.95,17.34-.74,43.02-8.34,61.67-11.75,29.15-35.34,52.62-65.43,61.97-1.26,.39-2.5,.63-3.72,1.13-19.77,5.58-44.57,3.66-63.35-5.33-9.91-4.78-19.54-11.75-26.57-20.41-.08-.3,.16-.13,.27-.32-4.64-5.03-9.04-11.23-11.93-17.35-.54-.63-.5-1.56-1.1-2.05-.1-.59-.31-1.1-.71-1.62-.44-2.39-2.14-4.93-2.12-6.99,.87,.8,.92,1.98,1.43,2.96,.54,1.17,.95,2.73,1.67,3.52-.02-.2,.27,.27,.4-.06,3.53,7.15,8.09,14.38,13.48,20.27,.27,.37,.9,1.11,1.37,.7-.49-.63-1.05-.96-1.28-1.72,.85-.22,1.01,.82,1.67,1.17,8.75,9.3,19.44,16,30.93,20.53,2.12,.37,4.05,1.41,6.1,1.57-.25-.51-.97-.13-1.39-.45-18.36-5.81-36.12-18.79-44.91-36.04,1.04,.38,1.6,2,2.45,3,1.84,2.74,3.36,4.98,5.63,7.32,.11-.09,.11-.14,.02-.25,15.01,16.77,35.04,27.24,58.08,27.94-2.57-.36-5.21-.58-7.66-1.12,.4-.16,.12-.38-.12-.49-5.79-1.07-11.88-2.15-17.11-4.69-.3-.02,.08,.05,.1-.09-.87-.61-1.87-1.03-2.93-1.32-13.7-5.78-26.7-16.5-34.45-29.05-2.62-3.45-4.2-7.5-6.05-11.19,.24-.51,2.36,2.89,3.46,5.09,4.51,8.32,10.42,15.9,17.38,21.91,12.8,10.81,24.59,15.3,43.31,17.98-.14-.06,2.08,.3,2.08,.2,2.85-.06,5.44,.05,8.11-.17,.19-.04,.07-.29,.27-.33,6.04-.73,12.4-1.09,17.98-2.8,1.36-.52,2.89-1.23,4.4-1.6,.36-1.39,3.01-.83,2.6-1.94,2.41-1.27,4.94-2.15,7.36-3.52,.73,.06,1.23-.67,1.98-.76,.54-.55,1.18-.64,1.83-.89,11.36-6.27,21.95-14.62,29.51-25.63,.04-.43,.79-.67,.53-1.13-.19-.01,.38,.08,.26-.18-.07-.35-.39,.07-.33-.17,6.94-10.47,12.42-21.74,15.26-34.3-.17-.31-.46-.48-.58-.05-.79,3.07-1.69,6.1-3.09,8.88-.07,.18-.43,.29-.35,.06,5.91-19.47,6.66-44.7,1.56-60.44-.42-1.3-1.01-4.37-1.46-2.69,1.9,6.93,2.47,12.82,2.93,19.54,.08,.55-.6,.39-.67,.04-.37-1.81-.44-3.25-.75-5.03-1.63-10.48-5.25-19.91-8.8-27.24-5.98-12.39-12.08-21.41-20.46-29.18-9.57-8.88-19.44-16.36-35.17-23.27-15.71-6.91-28.24-9.39-41.48-10.84-18.04-1.96-19.48-3.62-20.6-5.94-.99-2.06,3.28-1.39,6.95,.65,1.95,1.08,6.9,3.57,9.1,2.45,1.96-1-3.6-4.48,1.95-3.71,34.88,5.88,55.67,19.68,58.4,21.01,0,0,.39,.26,.5,.12,.11-.14-.06-.33-.06-.33-2.29-2.38-14.16-9.34-15.65-10.31-.29-.19-.13-.9,.47-.66,.55,.22,12.34,4.96,25.06,13.71,11.69,8.04,23.71,19.92,30.75,30.22,3.36,4.89,2.9,2.12,.41-2.13-2.46-4.2-11.02-17.19-20.55-26.9-8.04-8.19-15.71-15.26-29.5-25.41-.79-.59-.51-.73-.43-.91,.09-.21,.65,.08,1.34,.4,3.04,1.91,6.36,3.03,9.12,5.22Z"/><path class="cls-3" d="M424.69,127.73c-.02,.38-.5,1.33-.76,2.04,.36-.16,.8,.37,.42,.73-1.85,2.94-2.98,5.8-5.08,8.62-.84,1.39-4.02,5.64-5.14,7.38-.12,.23-.1,.27,.05,.13,.14-.06,1.93-1.62,2.77-2.58,.3-.19,.27,.03,.16,.13-2.09,3.56-5.13,7.64-7.89,10.36,.78,.62-.77,1.92-2.02,3.31-.61,.56-3.49,3.39-6.56,5.86-.3,.35-.31,.81,.02,.75,2.35-1.51,6.59-4.96,7.17-5.53,.59-.56,1.17-.23,.69,.56-.57,.93-5.85,5.89-10.44,9.68-2.57,2.12-9.49,6.64-12.92,8.08,.33,.22,3.1-.48,4.75-1.18,1.92-1.17,4.04-1.73,5.56-2.37-.01,.15-.02,.3-.04,.44-3.69,3.18-8.66,5.5-12.56,7.67-.54,.05-1.63,.48-2.22,1.07-1.06,.36-6.62,2.82-7.51,3.44,.69-.04,6.4-2.08,7.13-2.6-.11,.24,.27,.22,.16,.4-5.16,3.85-16.66,8.25-22.68,10.5-.31,.83,6.65-1.46,7.13-1.43,1.62-.61,3.43-1.14,4.94-1.61,.53-.49,.35,1.1,.24,.02-.08,.48-.85,.85-1.28,1.31,1.37,.01,2.53-.97,3.87-1.2,8.11-3.16,15.71-7.45,23.31-11.63,.81,.26,1.77-.69,2.76-.76-.38,1.1-1.25,1.47-2.19,2.18-10.24,6.47-20.78,12.21-32.49,15.7-1.05,.9-5.26,1.09-6.61,1.42,.17,.31,3.49-.14,3.11,.33,1.01,.28,2.08-.81,3.06-.15-2.68,1.5-5.76,1.99-8.57,2.74,.82,.31,1.59-.26,2.47-.14-.38,1-2,1.01-3.07,1.51-8.72,1.74-11.4,2.05-15.4,2.54-1.2,.22,.59,.77-.21,.87,2.22,1.31,17.13-1.21,22.7-3.07,2.15-.76,4.11-1.18,6.25-1.5,.08,.2,.21,.41,.3,.52-1.14,.74-2.47,.82-3.65,1.47,.3,1.05,1.2,.24,1.84,.24,1.49-.12,4.5-.62,5.72-1.11,.7-.19,1.55-.37,2.28-.75,.27,.17,.55-.4,.98-.17,2.21-.6,9.15-3.22,12.38-4.71,2.2-1.01,2.23,.55,1.07,1.26-.9,.59-1.2,1.58-.33,1.54,2.84-.65,1.97-.63,5.75-1.92,3.37-1.14,4.43-1.72,6.85-2.75,2.41-1.03,5.91-2.79,6.55-2.4,.12,.3,.51,.53-.11,1.27-.32,.27-.63,.58-.99,.76-3.26,1.73-7.73,3.59-9.73,4.69-1.43,.78-1.04,1.12-.64,.93,1.11-.32,5.56-1.72,7.09-1.84,4.86-1.03,.25,2.48-.95,3.69-.69,.7,1.67,.69,1.03,2.1-.58,1.27-.43,.24-17.32,3.96-16.95,3.74-36.58,7.85-55.82,7.45-11.55-.26-24.81-1.78-35.64-6.2-.04-.15,.04-.54-.28-.76-6.48-1.75-12.54-4.31-18.19-7.71,0-.1,0-.15,.02-.25-2-1.34-7.27-3.88-9.15-5.5,.15-.67-1.74-.31-1.38-1.21-13.1-7.69-21.95-16.58-30.39-29.58-.07-.31,.27-.28,.44-.06,.25-.03,.36,.52,.57,.29-1.67-2.35-3.04-4.81-4.32-7.31-.12-.26,.25-.57,.14-.43,1.62,1.16,3.1,3.34,4.29,5.16,2.75,3.51,5.44,7.11,8.27,9.84,2.54,1.83,4.35,4.33,6.88,6.35,.97,.72,1.94,2.12,3.1,2.37-10.41-8.9-17.54-18.89-23.78-30.09,.08-.43-.28-.8-.5-1.07-.64-1.82-2.08-3.95-1.92-5.35,.33,.17-.12,.23-.12,.33,1.15,.3,1.2,2.11,2.11,2.92,4.22,9.02,11.17,18.17,18.04,25.35,.49-.11,4.7,4.45,5.12,4.19-.28-.36-4.7-4.55-4.95-5.11,.71-.24-.37-.87-.68-1.24-.52-.88-1.55-1.98-1.41-1.88-.31-.38,.12-.33,.19-.48-1.64-1.65-2.73-3.26-4.2-5.05-.62-1.23-2.05-2.42-2.12-3.95-2.27-2.78-6.03-10.01-7.56-13.25,.05-.09-.03-.07,.07-.11,.51-.2,2.96,5.24,3.5,5.73,.39,.66,.71,1.57,1.52,1.79,4.45,6.15,11.7,15.41,17.26,20.71,.28-.52-4.51-5.06-3.37-5.22-.56-.44-1.35-1.48-1.13-1.76,2.42,1.67,4.43,3.99,6.68,5.84,2.49,1.97,5.09,4.44,7.74,6.08,.31-.27,5.14,3.34,5.64,3.09,.21-.08-4.93-3.38-4.53-3.59-6.16-4.47-11.44-8.83-16.1-14.75,.22-.32,.51,0,.58,.05,14.31,15.05,34.52,27.09,55.23,31.04,.6,.09,2.24-.46,.56-.84-2.52-.4-6.87-1.87-9.3-2.52-.61-.17-1.17-.35-1.39-.46-2.01-.56-3.91-1.4-5.8-2.15-.4-.18-.56-.73,.71-.28,2.02,1.05,2.67,.61,6.44,1.61,14.7,3.62,19.78,3.24,29.05,3.31,16.38-1.16,21.01-2.71,29.9-5.9,1.34-.77,2.96-.83,4.18-1.81-.05,0-.1-.06-.14-.11,10.05-4.13,19.76-9.52,28.09-16.63,3.75-2.88,7.39-6.41,10.88-9.7,.02-.24,.08-.29,.27-.22,8.27-8.25,14.75-18.56,21.16-28.53,.89-.17-.21,1.31-.26,1.99-.64,1.22-1.58,2.48-1.63,3.84,2.15-2.96,3.79-6.26,5.95-9.27,.16-.09,.32-.19,.34,.18Z"/><path class="cls-1" d="M373.65,177.18c.12-.12,.28-.25,.34-.31,7.45-7.68,11.32-12.54,15.88-20.64,.27-.48,1.42-2.12,.59,.24-.47,1.31-1.55,3.35-1.78,3.74-.23,.4-.33,.76-.31,.83,0,.19,.18,.22,.21,.2,.41,.1,4.62-9.23,6.25-9.68,.05,0,.15,0,.2,0-4.27,9.25-10.1,16.77-17.72,23.86-.28,.16-.34,.09-.23-.15,.49-.59,1.01-1.23,1.49-1.88,.15-.33-.16-.15-.16-.15-1.71,1.57-2.9,2.69-3.93,3.61-.29,.21-.57,.43-.64,.46-.22,.11-.18-.13-.18-.13Z"/><path class="cls-1" d="M231.54,149.95c.65,1.03,1,2.14,1.34,3.3,.35,.57,.64,1.23,.94,1.69,.33,1.4,1.25,2.66,1.93,3.94-.03,.44,.33,.77,.59,1.13,2.62,4.58,9.1,12.85,9.29,12.87,15.23,16.49,35.05,26.6,58.44,28.41,8.17,.67,17.11,.03,25.06-1.82,4.09-.79,8.07-2.13,11.85-3.49,1.98-.29,3.73-1.17,5.55-1.9,8.74-3.75,16.58-8.45,24.44-14.04,.03-.03,.68-.6,.87-.42,.09,.08,.11,.24,.11,.24-.51,.94-1.56,1.5-2.32,2.23-.96,.95-1.89,1.46-2.88,2.22,.61,.34,1.05-.8,1.72-.79,2.11-1.2,3.69-2.54,5.71-3.8,.55-.1,.29,.27,.2,.51-.7,.87-1.83,1.51-2.54,2.39l.09,.1c5.46-3.82,10.39-8.37,14.84-12.91,4.76-4.91,9.3-10.66,13.12-16.58,1.27-1.17,1.67-3,3.15-3.86-2,5.28-5.5,9.75-8.82,14.34-4.98,6.21-20.38,19.35-20.54,19.48-6.93,4.98-15.19,8.58-23.12,11.9,.09,1.37-1.09,1.3-2.21,1.94-7.59,2.91-15.69,5.51-23.91,6.61-18.08,2.38-36-1.57-50.79-8.33-3.21-1.42-6.96-1.99,.23,1.23,6.35,2.86,7.67,3.89,17.16,6.31,.09,.15,.25,.34-.17,.38-10.92-1.57-14.53-4.24-23.96-9.19,0,.02-9.79-5.72-1.27,.32,.75,.71,6.29,3.37,6.26,3.37,1.81,.59,2.06,1.9,4.05,2.2,1.01,.77,1.8,.88,2.55,1.92,12.61,5.56,26.04,7.41,40.99,6.6,.63-.04,.5,.31,.46,.38-21.76,2.24-44.8-4.51-60.39-16.37-12.12-9.21-16.24-15.06-19.29-18.39-.58-.61-1.17-.59-.48,.3,11.71,15.26,22.06,20.77,27.52,24.02,.44,.25,1.07,.66,2.02,1.14,.07,.06-.02,.15-.05,.17-.48,.31-3.74-1.88-4.03-1.42,14.59,8.7,24.64,10.74,41.8,13.12,.16,.36,.17,.4-.28,.42-12.07-.58-15.25-1.96-26.09-4.96-10.54-3.65-20.21-9.45-28.77-16.33-2.5-.79,2.2,3.61,2.99,4.13,16.1,12.44,30.15,19.3,55.8,21.34-.5,.7-2.23,.26-3.32,.41-.64,0-1.31-.2-1.91,0,4.8,.69,10.21,.28,14.83,.12,3.45-.15,7.01-.09,10.46-.79,1.2,.25,3.77-.84,5.05-.88,3.91,.17,7.32-1.43,11.06-2.21,1.49-.27,3.18-.95,4.63-1.69,3.27-1.01,5.38-2.25,8.74-3.06-.31,.07,.07,.25,.12,.35-.14,.48-.62,.3-.9,.67,.13,.21-1.12,.31-1.29,.69-2.29,1.53-3.18,1.84-5.58,2.97-1.15,.25-2.48,.34-3.27,1.01,.08,.16,.13,.16,.25,.02-5.09,2.87-11.31,2.75-16.96,4.15-38.19,5.31-78.08-10.01-100.06-39.8-3.42-4.99-6.81-9.72-9.02-15.1-1.14-1.62-1.64-3.37-2.53-5.06-.24-1.19-.94-2.33-1.33-3.49-1.2-3.34-2.28-7.24-2.95-10.15-.67-2.9-1.6-7.22-2.25-14.4-.65-7.18-.07-14.72,1.21-22.01,4.32-24.65,20.37-47.62,43.49-58.04,.06-.19,.32-.42,.61-.3,2.72-1.54,5.72-2.17,8.52-3.52,.89-.07,1.66-.5,2.51-.72,23.58-7.2,52.77-.15,69.26,18.36,2.55,2.9,5.43,6.78,7.1,9.65,1.89,3.24,4.94,9.09,6.22,15.2,.15-.04-.33,.44-.56-.29-2.25-6.16-5.03-12.23-8.92-17.45-.2,.57-.21,1.27,.22,1.9,9.79,13.93,12.74,31.88,7.66,49.12-.61,.97-.62,2.2-1.24,3.18-6,17.01-23.11,30.77-41.29,31.93-15.95,1.29-31.47-5.51-39.18-19.28,.07-.24,.45-.11,.59,.05,9.47,13.72,25.79,20.39,42.51,17.44,18.47-2.75,34.64-19.38,38.36-37.46,3.86-16.07,.15-32.4-9.05-45.31-.7-.94-1.58-2.29-2.44-3.04-3.19-4.19-6.83-7.57-10.9-10.65-.77-.52-1.18-.02-.95,.26,19.5,14.81,28.74,38.19,21.97,61.22-1.09,3.84-2.7,7.5-4.83,10.81-.22,.34-.78,.64-.42-.18,5.38-10.54,7.91-23.45,5.38-35.57-.13-.06-.32,.03-.29,.23,.36,2.29,.44,3.05,.68,6.1,.05,.7-.38,1.9-.45,1.66-1.07-13-6.35-26.71-16.32-36.05-.1,.09-.23,.02,.14,.43,.32,.42,.85,.99,1.17,1.4-.14-.02-.26-.02-.2,.17,.71,.9,1.81,2.09,1.86,3.18-6.89-7.93-15.3-13.89-24.92-17.41-14.68-5.76-32.34-5.41-46.14,.77-.73,.35-3.14,1.48-3.97,2.06-.38,.2-.23,.59,.02,.48,4.14-2.06,8.24-3.55,12.73-4.5,.21,.07,.22,.36-.14,.48-8.78,3.01-15.19,6.1-22.92,11.74-.57,.65-.06,.81,.46,.45,1.01-.72,1.4-.94,2.48-1.63,2.91-1.85,3.67-1.39,.24,.86-3.17,2.12-16.86,12.9-23.4,29.87-4.62,10.32-6.41,24.11-4.79,36.68,.98,7.57,2.8,12.29,5.03,17.97Z"/></g><path class="cls-4" d="M53.51,102.3c-4.82-5.9-13.29-9.89-21.02-9.89-15.62,0-28.5,13.46-28.5,28.83,0,7.31,3.16,14.21,8.39,19.36,5.23,4.99,12.71,8.64,20.1,8.64s16.37-3.9,21.02-9.56v5.49c-5.9,4.9-13.13,7.81-20.85,7.81C15.2,152.98,0,138.45,0,120.91s14.95-32.24,32.74-32.24c7.56,0,15.21,2.99,20.77,8.14v5.48Z"/><path class="cls-4" d="M72.72,93.25v22.77h25.26v3.74h-25.26v28.67h25.92v3.74h-29.91v-62.65h29.91v3.74h-25.92Z"/><path class="cls-4" d="M119.64,118.75v-25.51h2.58c3.66,0,7.89-.17,11.22,1.41,4.49,1.99,6.64,6.65,6.64,11.3,0,3.74-1.41,7.48-4.4,9.89-3.16,2.75-7.06,2.91-10.97,2.91h-5.07Zm6.48,3.74c10.39,.17,17.95-5.49,17.95-16.37,0-5.32-1.82-10.3-6.31-13.46-4.24-3.08-9.22-3.16-14.29-3.16h-7.81v62.65h3.99v-29.66h1.99l20.44,29.66h4.57l-20.52-29.66Z"/><path class="cls-4" d="M162.58,118.75v-25.51h2.58c3.66,0,7.9-.17,11.22,1.41,4.49,1.99,6.65,6.65,6.65,11.3,0,3.74-1.41,7.48-4.4,9.89-3.16,2.75-7.06,2.91-10.97,2.91h-5.07Zm6.48,3.74c10.39,.17,17.95-5.49,17.95-16.37,0-5.32-1.83-10.3-6.32-13.46-4.24-3.08-9.22-3.16-14.29-3.16h-7.81v62.65h3.99v-29.66h1.99l20.44,29.66h4.57l-20.52-29.66Z"/><path class="cls-4" d="M207.92,152.16h-3.99v-62.65h3.99v62.65Z"/><path class="cls-4" d="M244.92,152.16h-3.99v-58.91h-16.2v-3.74h36.39v3.74h-16.2v58.91Z"/><path class="cls-4" d="M296.54,92.41c15.54,0,28.5,12.96,28.5,28.42s-12.96,28.42-28.5,28.42-28.5-12.96-28.5-28.42,12.88-28.42,28.5-28.42Zm0-3.74c-17.7,0-32.49,14.54-32.49,32.16s14.87,32.15,32.49,32.15,32.49-14.54,32.49-32.15-14.88-32.16-32.49-32.16Z"/><path class="cls-4" d="M367.11,99.81c-2.82-4.49-6.81-7.39-12.71-7.39-6.73,0-11.8,5.4-11.8,11.96s6.23,9.31,11.3,11.72l11.97,6.23c4.73,2.99,7.14,6.82,7.14,12.46,0,10.39-9.47,18.2-19.61,18.2-8.72,0-15.54-5.4-18.44-13.46l3.49-1.58c2.66,6.65,7.56,11.3,15.12,11.3,8.23,0,15.45-6.48,15.45-14.79,0-7.06-7.23-10.05-12.63-12.71l-11.3-5.98c-4.15-2.58-6.48-6.23-6.48-11.22,0-9.31,6.65-15.87,16.04-15.87,6.31,0,12.3,3.41,15.29,8.81l-2.83,2.33Z"/><path class="cls-4" d="M433,148.42h15.96v3.74h-19.94v-62.65h3.98v58.91Z"/><path class="cls-4" d="M466.16,152.16h-3.99v-62.65h3.99v62.65Z"/><path class="cls-4" d="M487.2,121.66h8.81c4.15,0,9.39,.08,13.21,1.99,4.24,2.08,6.48,6.65,6.48,11.22s-2.33,8.56-6.15,11.13c-3.82,2.58-8.39,2.41-12.79,2.41h-9.56v-26.75Zm12.05,30.49c5.57,0,10.22-.75,14.62-4.49,3.91-3.32,5.82-7.89,5.82-12.96,0-7.97-5.24-14.21-12.96-15.79,4.98-2.82,7.23-7.06,7.23-12.79,0-4.99-1.41-9.64-5.23-12.96-3.74-3.32-8.23-3.66-12.96-3.66h-12.54v62.65h16.03Zm-12.05-58.91h6.9c3.66,0,7.56,0,10.72,1.99,3.57,2.24,5.15,6.23,5.15,10.3,0,4.32-1.08,7.48-4.66,10.05-3.57,2.58-6.98,2.33-11.21,2.33h-6.9v-24.68Z"/><path class="cls-4" d="M536.54,118.75v-25.51h2.58c3.65,0,7.89-.17,11.22,1.41,4.48,1.99,6.65,6.65,6.65,11.3,0,3.74-1.42,7.48-4.41,9.89-3.16,2.75-7.06,2.91-10.96,2.91h-5.07Zm6.48,3.74c10.39,.17,17.95-5.49,17.95-16.37,0-5.32-1.83-10.3-6.32-13.46-4.24-3.08-9.22-3.16-14.29-3.16h-7.81v62.65h3.99v-29.66h1.99l20.44,29.66h4.57l-20.52-29.66Z"/><path class="cls-4" d="M607.65,127.81h-24.51l12.3-30.25,12.21,30.25Zm1.49,3.74l8.39,20.61h4.07l-26.17-64.73-26.26,64.73h4.07l8.39-20.61h27.5Z"/><path class="cls-4" d="M633.94,118.75v-25.51h2.57c3.66,0,7.89-.17,11.22,1.41,4.48,1.99,6.65,6.65,6.65,11.3,0,3.74-1.41,7.48-4.41,9.89-3.15,2.75-7.06,2.91-10.97,2.91h-5.07Zm6.48,3.74c10.38,.17,17.94-5.49,17.94-16.37,0-5.32-1.82-10.3-6.31-13.46-4.24-3.08-9.22-3.16-14.29-3.16h-7.81v62.65h3.99v-29.66h1.99l20.44,29.66h4.57l-20.52-29.66Z"/><path class="cls-4" d="M664.85,89.51h4.41l18.45,31.74,18.45-31.74h4.41l-20.86,35.89v26.76h-3.99v-26.76l-20.86-35.89Z"/></g><g><path class="cls-4" d="M720.18,96.83l-1.3-.79c-.81-.5-1.39-.99-1.74-1.47-.34-.48-.52-1.04-.52-1.67,0-.94,.33-1.71,.98-2.3,.65-.59,1.5-.88,2.54-.88s1.91,.28,2.74,.85v1.94c-.86-.83-1.78-1.24-2.77-1.24-.56,0-1.02,.13-1.38,.39-.36,.26-.54,.59-.54,.99,0,.36,.13,.69,.4,1,.27,.31,.69,.64,1.28,.99l1.3,.78c1.46,.88,2.18,1.99,2.18,3.34,0,.96-.32,1.74-.96,2.34-.64,.6-1.48,.9-2.51,.9-1.18,0-2.26-.37-3.23-1.1v-2.17c.92,1.18,1.99,1.77,3.2,1.77,.54,0,.98-.15,1.34-.45,.36-.3,.53-.68,.53-1.13,0-.73-.52-1.42-1.57-2.08Z"/><path class="cls-4" d="M736.53,89.87h1.6v11.98h-1.71v-9.32l-3.7,4.63h-.32l-3.71-4.63v9.32h-1.71v-11.98h1.65l3.94,4.92,3.96-4.92Z"/></g></svg>